<?xml version="1.0" standalone="no"?>
<svg xmlns:xlink="http://www.w3.org/1999/xlink" id="wave" style="transform:rotate(0deg); transition: 0.3s" viewBox="0 0 1440 490" version="1.1" xmlns="http://www.w3.org/2000/svg"><defs><linearGradient id="sw-gradient-0" x1="0" x2="0" y1="1" y2="0"><stop stop-color="rgba(9, 63, 126, 1)" offset="0%"/><stop stop-color="rgba(143.145, 174.953, 212.061, 1)" offset="100%"/></linearGradient></defs><path style="transform:translate(0, 0px); opacity:1" fill="url(#sw-gradient-0)" d="M0,98L20,98C40,98,80,98,120,106.2C160,114,200,131,240,130.7C280,131,320,114,360,114.3C400,114,440,131,480,155.2C520,180,560,212,600,261.3C640,310,680,376,720,367.5C760,359,800,278,840,261.3C880,245,920,294,960,310.3C1000,327,1040,310,1080,269.5C1120,229,1160,163,1200,171.5C1240,180,1280,261,1320,245C1360,229,1400,114,1440,73.5C1480,33,1520,65,1560,138.8C1600,212,1640,327,1680,343C1720,359,1760,278,1800,253.2C1840,229,1880,261,1920,269.5C1960,278,2000,261,2040,285.8C2080,310,2120,376,2160,375.7C2200,376,2240,310,2280,236.8C2320,163,2360,82,2400,89.8C2440,98,2480,196,2520,228.7C2560,261,2600,229,2640,253.2C2680,278,2720,359,2760,359.3C2800,359,2840,278,2860,236.8L2880,196L2880,490L2860,490C2840,490,2800,490,2760,490C2720,490,2680,490,2640,490C2600,490,2560,490,2520,490C2480,490,2440,490,2400,490C2360,490,2320,490,2280,490C2240,490,2200,490,2160,490C2120,490,2080,490,2040,490C2000,490,1960,490,1920,490C1880,490,1840,490,1800,490C1760,490,1720,490,1680,490C1640,490,1600,490,1560,490C1520,490,1480,490,1440,490C1400,490,1360,490,1320,490C1280,490,1240,490,1200,490C1160,490,1120,490,1080,490C1040,490,1000,490,960,490C920,490,880,490,840,490C800,490,760,490,720,490C680,490,640,490,600,490C560,490,520,490,480,490C440,490,400,490,360,490C320,490,280,490,240,490C200,490,160,490,120,490C80,490,40,490,20,490L0,490Z"/></svg>